<svg width="21" height="24" viewBox="0 0 21 24" fill="none" xmlns="http://www.w3.org/2000/svg">
<g id="Group">
<path id="Vector" d="M20.2162 18.5037C19.8455 19.3333 19.4067 20.0968 18.8981 20.799C18.2052 21.756 17.6377 22.4184 17.2004 22.7864C16.5225 23.3902 15.7962 23.6994 15.0184 23.717C14.46 23.717 13.7867 23.5632 13.0028 23.251C12.2164 22.9402 11.4937 22.7864 10.8329 22.7864C10.1399 22.7864 9.3966 22.9402 8.60158 23.251C7.80533 23.5632 7.16389 23.7258 6.67346 23.742C5.92762 23.7726 5.18419 23.4546 4.44211 22.7864C3.96848 22.3862 3.37609 21.7002 2.66638 20.7286C1.90495 19.6909 1.27896 18.4876 0.788522 17.1158C0.263295 15.634 0 14.1992 0 12.8101C0 11.2188 0.354997 9.8464 1.06604 8.69632C1.62487 7.77254 2.36829 7.04382 3.29876 6.50888C4.22922 5.97392 5.23458 5.7013 6.31726 5.68386C6.90968 5.68386 7.68654 5.86136 8.65196 6.21018C9.61466 6.56016 10.2328 6.73766 10.5038 6.73766C10.7064 6.73766 11.3931 6.53012 12.5572 6.11638C13.6581 5.73268 14.5871 5.5738 15.3483 5.63638C17.4108 5.7976 18.9603 6.58508 19.9907 8.00382C18.1462 9.08634 17.2337 10.6025 17.2519 12.5476C17.2685 14.0626 17.836 15.3233 18.9512 16.3244C19.4565 16.789 20.021 17.148 20.649 17.4031C20.5129 17.7856 20.369 18.152 20.2162 18.5037ZM15.486 0.475014C15.486 1.66248 15.0381 2.77122 14.1453 3.79746C13.0679 5.01744 11.7647 5.72242 10.3516 5.61118C10.3336 5.46872 10.3231 5.31878 10.3231 5.16122C10.3231 4.02126 10.8355 2.80126 11.7454 1.80376C12.1996 1.2987 12.7774 0.878752 13.478 0.543752C14.1771 0.21375 14.8383 0.031252 15.4603 0C15.4784 0.158746 15.486 0.317502 15.486 0.474998V0.475014Z" fill="#FEFFFE"/>
</g>
</svg>
