<svg width="21" height="20" viewBox="0 0 21 20" fill="none" xmlns="http://www.w3.org/2000/svg">
<g id="Google logo">
<g clip-path="url(#clip0_449_25888)">
<path id="Vector" d="M20.6381 10.1871C20.6381 9.3677 20.5678 8.76976 20.4158 8.14969H10.5302V11.848H16.3328C16.2159 12.7671 15.5841 14.1512 14.1802 15.0813L14.1605 15.2051L17.2862 17.4969L17.5027 17.5174C19.4915 15.7789 20.6381 13.2211 20.6381 10.1871Z" fill="#4285F4"/>
<path id="Vector_2" d="M10.5301 19.9313C13.373 19.9313 15.7595 19.0454 17.5027 17.5174L14.1802 15.0813C13.2911 15.6682 12.0978 16.0779 10.5301 16.0779C7.74581 16.0779 5.38263 14.3395 4.54023 11.9366L4.41675 11.9466L1.16665 14.3273L1.12415 14.4391C2.85558 17.6945 6.41207 19.9313 10.5301 19.9313Z" fill="#34A853"/>
<path id="Vector_3" d="M4.5402 11.9366C4.31792 11.3166 4.18928 10.6521 4.18928 9.96565C4.18928 9.27908 4.31792 8.61473 4.5285 7.99466L4.52261 7.8626L1.23178 5.44366L1.12411 5.49214C0.410506 6.84305 0.0010376 8.36008 0.0010376 9.96565C0.0010376 11.5712 0.410506 13.0882 1.12411 14.4391L4.5402 11.9366Z" fill="#FBBC05"/>
<path id="Vector_4" d="M10.5302 3.85336C12.5073 3.85336 13.8409 4.66168 14.6014 5.33717L17.5729 2.59107C15.7479 0.985496 13.373 0 10.5302 0C6.41208 0 2.85558 2.23672 1.12415 5.49214L4.52854 7.99465C5.38264 5.59183 7.74582 3.85336 10.5302 3.85336Z" fill="#EB4335"/>
</g>
</g>
<defs>
<clipPath id="clip0_449_25888">
<rect width="20.649" height="20" rx="8" fill="white"/>
</clipPath>
</defs>
</svg>
